<svg xmlns="http://www.w3.org/2000/svg" viewBox="0 0 160 160" width="160" height="160">
  <!-- Background gradient circle -->
  <defs>
    <linearGradient id="bgGradient" x1="0%" y1="0%" x2="100%" y2="100%">
      <stop offset="0%" style="stop-color:#0066aa;stop-opacity:1" />
      <stop offset="100%" style="stop-color:#0088cc;stop-opacity:1" />
    </linearGradient>
    <linearGradient id="waveGradient" x1="0%" y1="0%" x2="0%" y2="100%">
      <stop offset="0%" style="stop-color:#ffffff;stop-opacity:0.9" />
      <stop offset="100%" style="stop-color:#ffffff;stop-opacity:0.6" />
    </linearGradient>
  </defs>
  
  <!-- Background rounded square -->
  <rect width="160" height="160" rx="12" fill="url(#bgGradient)"/>
  
  <!-- Water waves design -->
  <g opacity="0.3">
    <path d="M0,60 Q40,45 80,60 T160,60 L160,160 L0,160 Z" fill="#ffffff"/>
    <path d="M0,80 Q40,65 80,80 T160,80 L160,160 L0,160 Z" fill="#ffffff"/>
  </g>
  
  <!-- Main "S" letter centered with water drop design -->
  <g>
    <!-- S letter - centered and larger -->
    <path d="M95,35 Q115,35 125,50 Q135,65 128,80 Q120,95 100,102 L65,115 Q52,122 52,138 Q52,152 65,160 Q78,168 95,168 L105,168" 
          stroke="white" stroke-width="18" fill="none" stroke-linecap="round" stroke-linejoin="round"/>
  </g>
  
  <!-- Water droplet accents -->
  <g opacity="0.75">
    <path d="M35,45 Q35,35 40,28 Q45,35 45,45 Q45,52 40,57 Q35,52 35,45 Z" fill="white"/>
    <path d="M125,130 Q125,120 130,113 Q135,120 135,130 Q135,137 130,142 Q125,137 125,130 Z" fill="white"/>
  </g>
</svg>
